<svg width="24" height="25" viewBox="0 0 24 25" fill="#ffffffff" xmlns="http://www.w3.org/2000/svg">
  <path d="M17.15 10.5C17.7023 10.5 18.15 10.0523 18.15 9.5C18.15 8.94772 17.7023 8.5 17.15 8.5C16.5977 8.5 16.15 8.94772 16.15 9.5C16.15 10.0523 16.5977 10.5 17.15 10.5Z" fill="#fffffff"/>
  <path d="M17.15 16.5C17.7023 16.5 18.15 16.0523 18.15 15.5C18.15 14.9477 17.7023 14.5 17.15 14.5C16.5977 14.5 16.15 14.9477 16.15 15.5C16.15 16.0523 16.5977 16.5 17.15 16.5Z" fill="#fffffff"/>
  <path d="M19.75 13.5C20.3023 13.5 20.75 13.0523 20.75 12.5C20.75 11.9477 20.3023 11.5 19.75 11.5C19.1977 11.5 18.75 11.9477 18.75 12.5C18.75 13.0523 19.1977 13.5 19.75 13.5Z" fill="#fffffff"/>
  <path d="M6.79999 10.5C7.35227 10.5 7.79999 10.0523 7.79999 9.5C7.79999 8.94772 7.35227 8.5 6.79999 8.5C6.2477 8.5 5.79999 8.94772 5.79999 9.5C5.79999 10.0523 6.2477 10.5 6.79999 10.5Z" fill="#fffffff"/>
  <path d="M6.79999 16.5C7.35227 16.5 7.79999 16.0523 7.79999 15.5C7.79999 14.9477 7.35227 14.5 6.79999 14.5C6.2477 14.5 5.79999 14.9477 5.79999 15.5C5.79999 16.0523 6.2477 16.5 6.79999 16.5Z" fill="#fffffff"/>
  <path d="M4.20001 13.5C4.7523 13.5 5.20001 13.0523 5.20001 12.5C5.20001 11.9477 4.7523 11.5 4.20001 11.5C3.64773 11.5 3.20001 11.9477 3.20001 12.5C3.20001 13.0523 3.64773 13.5 4.20001 13.5Z" fill="#fffffff"/>
  <path d="M15.9 6.70001C16.4523 6.70001 16.9 6.2523 16.9 5.70001C16.9 5.14773 16.4523 4.70001 15.9 4.70001C15.3477 4.70001 14.9 5.14773 14.9 5.70001C14.9 6.2523 15.3477 6.70001 15.9 6.70001Z" fill="#fffffff"/>
  <path d="M8.09998 6.70001C8.65226 6.70001 9.09998 6.2523 9.09998 5.70001C9.09998 5.14773 8.65226 4.70001 8.09998 4.70001C7.54769 4.70001 7.09998 5.14773 7.09998 5.70001C7.09998 6.2523 7.54769 6.70001 8.09998 6.70001Z" fill="#fffffff"/>
  <path d="M12.05 7.5C12.6023 7.5 13.05 7.05228 13.05 6.5C13.05 5.94772 12.6023 5.5 12.05 5.5C11.4977 5.5 11.05 5.94772 11.05 6.5C11.05 7.05228 11.4977 7.5 12.05 7.5Z" fill="#fffffff"/>
  <path d="M15.9 20.5C16.4523 20.5 16.9 20.0523 16.9 19.5C16.9 18.9477 16.4523 18.5 15.9 18.5C15.3477 18.5 14.9 18.9477 14.9 19.5C14.9 20.0523 15.3477 20.5 15.9 20.5Z" fill="#fffffff"/>
  <path d="M8.09998 20.5C8.65226 20.5 9.09998 20.0523 9.09998 19.5C9.09998 18.9477 8.65226 18.5 8.09998 18.5C7.54769 18.5 7.09998 18.9477 7.09998 19.5C7.09998 20.0523 7.54769 20.5 8.09998 20.5Z" fill="#fffffff"/>
  <path d="M12.05 19.7C12.6023 19.7 13.05 19.2523 13.05 18.7C13.05 18.1477 12.6023 17.7 12.05 17.7C11.4977 17.7 11.05 18.1477 11.05 18.7C11.05 19.2523 11.4977 19.7 12.05 19.7Z" fill="#fffffff"/>
  <path d="M13.75 10.75C14.4404 10.75 15 10.1904 15 9.5C15 8.80964 14.4404 8.25 13.75 8.25C13.0596 8.25 12.5 8.80964 12.5 9.5C12.5 10.1904 13.0596 10.75 13.75 10.75Z" fill="#fffffff"/>
  <path d="M10.25 10.75C10.9404 10.75 11.5 10.1904 11.5 9.5C11.5 8.80964 10.9404 8.25 10.25 8.25C9.55964 8.25 9 8.80964 9 9.5C9 10.1904 9.55964 10.75 10.25 10.75Z" fill="#fffffff"/>
  <path d="M15.5 13.75C16.1904 13.75 16.75 13.1904 16.75 12.5C16.75 11.8096 16.1904 11.25 15.5 11.25C14.8096 11.25 14.25 11.8096 14.25 12.5C14.25 13.1904 14.8096 13.75 15.5 13.75Z" fill="#fffffff"/>
  <path d="M8.5 13.75C9.19036 13.75 9.75 13.1904 9.75 12.5C9.75 11.8096 9.19036 11.25 8.5 11.25C7.80964 11.25 7.25 11.8096 7.25 12.5C7.25 13.1904 7.80964 13.75 8.5 13.75Z" fill="#fffffff"/>
  <path d="M10.25 16.75C10.9404 16.75 11.5 16.1904 11.5 15.5C11.5 14.8096 10.9404 14.25 10.25 14.25C9.55964 14.25 9 14.8096 9 15.5C9 16.1904 9.55964 16.75 10.25 16.75Z" fill="#fffffff"/>
  <path d="M13.75 16.75C14.4404 16.75 15 16.1904 15 15.5C15 14.8096 14.4404 14.25 13.75 14.25C13.0596 14.25 12.5 14.8096 12.5 15.5C12.5 16.1904 13.0596 16.75 13.75 16.75Z" fill="#fffffff"/>
  <path d="M12 3.83001C11.51 3.83001 11.12 3.44001 11.12 2.95001C11.12 2.46001 11.51 2.07001 12 2.07001C12.49 2.07001 12.88 2.46001 12.88 2.95001C12.88 3.44001 12.49 3.83001 12 3.83001Z" fill="#fffffff"/>
  <path d="M17.25 4.10001C16.83 4.10001 16.49 3.76001 16.49 3.35001C16.49 2.94001 16.83 2.60001 17.24 2.60001C17.65 2.60001 18 2.94001 18 3.35001C18 3.76001 17.67 4.10001 17.25 4.10001Z" fill="#fffffff"/>
  <path d="M6.75 4.10001C6.34 4.10001 6 3.76001 6 3.35001C6 2.94001 6.33 2.60001 6.75 2.60001H6.76001C7.17001 2.60001 7.51001 2.94001 7.51001 3.35001C7.51001 3.76001 7.17 4.10001 6.75 4.10001Z" fill="#fffffff"/>
  <path d="M12 22.88C11.51 22.88 11.12 22.49 11.12 22C11.12 21.51 11.51 21.12 12 21.12C12.49 21.12 12.88 21.51 12.88 22C12.88 22.49 12.49 22.88 12 22.88Z" fill="#fffffff"/>
  <path d="M17.25 22.35C16.83 22.35 16.49 22.01 16.49 21.6C16.49 21.19 16.83 20.85 17.24 20.85C17.65 20.85 18 21.19 18 21.6C18 22.01 17.67 22.35 17.25 22.35Z" fill="#fffffff"/>
  <path d="M6.75 22.35C6.34 22.35 6 22.01 6 21.6C6 21.19 6.33 20.85 6.75 20.85H6.76001C7.17001 20.85 7.51001 21.19 7.51001 21.6C7.51001 22.01 7.17 22.35 6.75 22.35Z" fill="#fffffff"/>
  <path d="M1.55002 13.38C1.07002 13.38 0.670044 12.99 0.670044 12.51V12.5C0.670044 12.02 1.06002 11.62 1.55002 11.62C2.04002 11.62 2.43002 12.01 2.43002 12.5C2.43002 12.99 2.03002 13.38 1.55002 13.38Z" fill="#fffffff"/>
  <path d="M3.75 18.25C3.34 18.25 3 17.92 3 17.5V17.49C3 17.08 3.34 16.74 3.75 16.74C4.16 16.74 4.5 17.08 4.5 17.49C4.5 17.9 4.16 18.25 3.75 18.25Z" fill="#fffffff"/>
  <path d="M3.75 8.26001C3.34 8.26001 3 7.92001 3 7.51001C3 7.10001 3.34 6.76001 3.75 6.76001C4.16 6.76001 4.5 7.09001 4.5 7.50001V7.51001C4.5 7.92001 4.16 8.26001 3.75 8.26001Z" fill="#fffffff"/>
  <path d="M22.5 13.38C22.02 13.38 21.62 12.99 21.62 12.51V12.5C21.62 12.02 22.01 11.62 22.5 11.62C22.99 11.62 23.38 12.01 23.38 12.5C23.38 12.99 22.98 13.38 22.5 13.38Z" fill="#fffffff"/>
  <path d="M20.3 18.25C19.89 18.25 19.55 17.92 19.55 17.5V17.49C19.55 17.08 19.89 16.74 20.3 16.74C20.71 16.74 21.05 17.08 21.05 17.49C21.05 17.9 20.71 18.25 20.3 18.25Z" fill="#fffffff"/>
  <path d="M20.3 8.26001C19.89 8.26001 19.55 7.92001 19.55 7.51001C19.55 7.10001 19.89 6.76001 20.3 6.76001C20.71 6.76001 21.05 7.09001 21.05 7.51001V7.52001C21.05 7.92001 20.71 8.26001 20.3 8.26001Z" fill="#fffffff"/>
</svg>
